<?xml version="1.0" encoding="utf-8"?>
<!-- Generator: Adobe Illustrator 16.0.0, SVG Export Plug-In . SVG Version: 6.00 Build 0)  -->
<!DOCTYPE svg PUBLIC "-//W3C//DTD SVG 1.1//EN" "http://www.w3.org/Graphics/SVG/1.1/DTD/svg11.dtd">
<svg version="1.1" id="Layer_1" xmlns="http://www.w3.org/2000/svg" xmlns:xlink="http://www.w3.org/1999/xlink" x="0px" y="0px"
	 width="200px" height="200px" viewBox="0 0 200 200" enable-background="new 0 0 200 200" xml:space="preserve">
<line fill="none" stroke="#000000" stroke-miterlimit="10" x1="42.081" y1="32.149" x2="153.143" y2="32.149"/>
<line fill="none" stroke="#000000" stroke-miterlimit="10" x1="153.143" y1="32.149" x2="153.143" y2="160.592"/>
<line fill="none" stroke="#000000" stroke-miterlimit="10" x1="42.081" y1="32.149" x2="42.081" y2="160.592"/>
<line fill="none" stroke="#000000" stroke-miterlimit="10" x1="42.081" y1="160.592" x2="153.143" y2="160.592"/>
<line fill="none" stroke="#000000" stroke-miterlimit="10" x1="49.305" y1="40.05" x2="144.564" y2="40.05"/>
<line fill="none" stroke="#000000" stroke-miterlimit="10" x1="144.564" y1="56.979" x2="144.564" y2="40.05"/>
<line fill="none" stroke="#000000" stroke-miterlimit="10" x1="49.305" y1="40.05" x2="49.305" y2="56.979"/>
<line fill="none" stroke="#000000" stroke-miterlimit="10" x1="49.305" y1="56.979" x2="144.564" y2="56.979"/>
<line fill="none" stroke="#000000" stroke-miterlimit="10" x1="49.305" y1="74.813" x2="49.305" y2="150.434"/>
<line fill="none" stroke="#000000" stroke-miterlimit="10" x1="49.305" y1="150.434" x2="144.564" y2="150.434"/>
<line fill="none" stroke="#000000" stroke-miterlimit="10" x1="144.564" y1="139.824" x2="144.564" y2="74.813"/>
<line fill="none" stroke="#000000" stroke-miterlimit="10" x1="144.564" y1="139.824" x2="144.564" y2="150.434"/>
<line fill="none" stroke="#000000" stroke-miterlimit="10" x1="144.564" y1="74.813" x2="49.305" y2="74.813"/>
<line fill="none" stroke="#000000" stroke-miterlimit="10" x1="62.171" y1="74.813" x2="62.171" y2="150.434"/>
<line fill="none" stroke="#000000" stroke-miterlimit="10" x1="76.393" y1="74.813" x2="76.393" y2="150.434"/>
<line fill="none" stroke="#000000" stroke-miterlimit="10" x1="90.163" y1="74.813" x2="90.163" y2="150.434"/>
<line fill="none" stroke="#000000" stroke-miterlimit="10" x1="105.287" y1="74.813" x2="105.287" y2="150.434"/>
<line fill="none" stroke="#000000" stroke-miterlimit="10" x1="119.057" y1="74.813" x2="119.057" y2="150.434"/>
<line fill="none" stroke="#000000" stroke-miterlimit="10" x1="132.601" y1="74.813" x2="132.601" y2="150.434"/>
<line fill="none" stroke="#000000" stroke-miterlimit="10" x1="49.305" y1="89" x2="144.564" y2="89"/>
<line fill="none" stroke="#000000" stroke-miterlimit="10" x1="49.305" y1="104.25" x2="144.564" y2="104.25"/>
<line fill="none" stroke="#000000" stroke-miterlimit="10" x1="49.305" y1="118.5" x2="144.564" y2="118.5"/>
<line fill="none" stroke="#000000" stroke-miterlimit="10" x1="49.305" y1="135.75" x2="144.564" y2="135.75"/>
<rect x="132.601" y="44.75" width="8.899" height="8.899"/>
<rect x="119.057" y="44.75" width="8.899" height="8.899"/>
<rect x="105.287" y="44.75" width="8.899" height="8.899"/>
</svg>
